<?xml version="1.0" encoding="UTF-8"?>
<svg width="17px" height="20px" viewBox="0 0 17 20" version="1.1" xmlns="http://www.w3.org/2000/svg" xmlns:xlink="http://www.w3.org/1999/xlink">
    <!-- Generator: Sketch 54.1 (76490) - https://sketchapp.com -->
    <title>密码</title>
    <desc>Created with Sketch.</desc>
    <g id="页面1" stroke="none" stroke-width="1" fill="none" fill-rule="evenodd">
        <g id="01.登录" transform="translate(-787.000000, -630.000000)" fill="#CCCCCC" fill-rule="nonzero">
            <g id="编组-4" transform="translate(740.000000, 452.000000)">
                <g id="编组-2" transform="translate(30.000000, 163.000000)">
                    <g id="密码" transform="translate(17.000000, 15.000000)">
                        <path d="M14.5835932,8.00030582 L14.2367508,8.00030582 L14.2367508,8.00030582 L11.1103554,8.00030582 L11.1103554,8.00030582 L5.208734,8.00030582 L5.208734,4.666507 C5.208734,3.56223709 6.60818646,2.33360953 8.3329717,2.33360953 C10.0583973,2.33360953 11.4593903,3.56225045 11.4593903,4.666507 L11.4593903,5.48588974 C11.4593903,5.49067585 11.4593903,5.49559871 11.4593903,5.50027087 C11.4593903,5.50471513 11.4593903,5.50959239 11.4593903,5.51476597 L11.4593903,5.66712391 L11.4716885,5.66712391 C11.5547367,6.23256858 12.0614307,6.66701188 12.6728751,6.66701188 C13.2864539,6.66701188 13.7916287,6.23256858 13.8762448,5.66712391 L13.8900625,5.66712391 L13.8900625,4.66652992 C13.8900625,2.08937599 11.4010663,0 8.33302128,0 C5.26562586,0 2.77737215,2.08938935 2.77737215,4.66652992 L2.77737215,8.00032873 L2.0822629,8.00032873 C0.932668246,8.00032873 6.03961325e-13,8.895788 6.03961325e-13,10.0000824 L6.03961325e-13,18.000567 C6.03961325e-13,19.1048837 0.932668246,20 2.0822629,20 L14.5836451,20 C15.7348058,20 16.6666667,19.1048815 16.6666667,18.000567 L16.6666666,10.0000601 C16.6666192,8.89576572 15.7347594,8.00030646 14.5835964,8.00030646 L14.5835932,8.00030582 Z M9.37554045,15.3839911 L9.37554045,16.2956555 C9.37554045,16.8684165 8.90877943,17.3324191 8.33297402,17.3324191 C7.75856763,17.3324191 7.29099922,16.8684165 7.29099922,16.2956555 L7.29099922,15.3839911 C6.47058173,15.014936 5.90154171,14.2219456 5.90154171,13.3031252 C5.90154171,12.0310206 6.99111787,10.9994486 8.33297634,10.9994486 C9.67623151,10.9994486 10.7642718,12.0310162 10.7642718,13.3031252 C10.7642717,14.2219456 10.1967514,15.014936 9.37554973,15.3839911 L9.37554045,15.3839911 Z" id="形状"></path>
                    </g>
                </g>
            </g>
        </g>
    </g>
</svg>