<?xml version="1.0" encoding="UTF-8"?>
<svg width="24px" height="14px" viewBox="0 0 24 14" version="1.1" xmlns="http://www.w3.org/2000/svg" xmlns:xlink="http://www.w3.org/1999/xlink">
    <!-- Generator: Sketch 54.1 (76490) - https://sketchapp.com -->
    <title>登录箭头</title>
    <desc>Created with Sketch.</desc>
    <g id="页面1" stroke="none" stroke-width="1" fill="none" fill-rule="evenodd">
        <g id="2.登录" transform="translate(-948.000000, -733.000000)" fill="#FFFFFF" fill-rule="nonzero">
            <g id="编组-4" transform="translate(740.000000, 452.000000)">
                <g id="编组-3" transform="translate(145.000000, 263.000000)">
                    <g id="登录箭头" transform="translate(63.000000, 18.000000)">
                        <path d="M0.330638371,7.96098964 L20.0827505,7.96098964 L15.0387253,12.5194419 L15.0387252,12.5194419 C14.9116991,12.6377457 14.9091918,12.8319483 15.0331247,12.9532035 C15.0349684,12.9550075 15.0368354,12.9567896 15.0387252,12.9585497 L16.0520635,13.9093145 C16.1813975,14.0302285 16.3907319,14.0302285 16.5193996,13.9093145 L22.8687644,8.17162993 L22.8687645,8.17162992 C22.8763758,8.16578699 22.8837161,8.15962941 22.8907644,8.15317476 L22.9240979,8.12135535 L23.9041023,7.23677456 L23.9041023,7.23677455 C23.9701689,7.1746855 24.0049228,7.0883837 23.9994361,7.00003801 L23.9994361,7.00003784 C24.0047494,6.91159494 23.9697464,6.82527837 23.9034356,6.7633013 L22.8900973,5.8469007 L22.8900973,5.84690069 C22.883666,5.84092827 22.8769943,5.83519647 22.8700972,5.82971815 L16.5200735,0.0907619951 L16.5200735,0.090762003 C16.3900876,-0.03025393 16.1827243,-0.0302540667 16.0527375,0.0907619873 L15.0393992,1.04152685 L15.0393992,1.04152685 C14.9123731,1.15983059 14.9098657,1.35403319 15.0337986,1.47528839 C15.0356424,1.47709236 15.0375094,1.47887456 15.0393992,1.48063459 L20.036087,5.99581369 L0.330667759,5.99581369 L0.330667764,5.99581369 C0.149523544,5.99440215 0.00147830822,6.13343477 1.76191333e-07,6.3063512 C1.17222315e-07,6.3063581 5.84919188e-08,6.306365 0,6.30637189 L0,7.65106097 C0,7.82288634 0.148000834,7.96161899 0.330667588,7.96161899 L0.330638371,7.96098964 Z" id="路径"></path>
                    </g>
                </g>
            </g>
        </g>
    </g>
</svg>