<?xml version="1.0" encoding="UTF-8"?>
<svg width="20px" height="20px" viewBox="0 0 20 20" version="1.1" xmlns="http://www.w3.org/2000/svg" xmlns:xlink="http://www.w3.org/1999/xlink">
    <!-- Generator: Sketch 54.1 (76490) - https://sketchapp.com -->
    <title>账号</title>
    <desc>Created with Sketch.</desc>
    <g id="页面1" stroke="none" stroke-width="1" fill="none" fill-rule="evenodd">
        <g id="01.登录" transform="translate(-785.000000, -560.000000)" fill="#CCCCCC" fill-rule="nonzero">
            <g id="编组-4" transform="translate(740.000000, 452.000000)">
                <g id="编组" transform="translate(30.000000, 93.000000)">
                    <g id="账号" transform="translate(15.000000, 15.000000)">
                        <path d="M18.3135325,13.2337095 C18.3135325,13.2337095 14.0786832,11.2970691 9.99374252,11.2970691 C5.9088018,11.2970691 1.67395257,13.2337095 1.67395257,13.2337095 C0.749530332,13.5923462 0,14.6802133 0,15.6485335 L0,15.6604881 L5.10466646e-14,15.6604887 C3.78157292e-07,18.0571291 2.03023888,20 4.53466626,20 L15.4653339,20 L15.4653337,20 C17.969755,20.0000001 20,18.057135 20,15.6604887 C19.9875078,14.6802134 19.237977,13.6042975 18.3135547,13.2337116 L18.3135325,13.2337095 Z M4.55962516,5.21218689 L4.55962514,5.21217091 C4.56306555,8.08748312 7.00157261,10.4157055 10.0061924,10.4124243 C13.0108121,10.4091319 15.4437385,8.07556906 15.4403097,5.20025685 C15.4368693,2.32494464 12.9983622,-0.00327778564 9.9937425,3.46403046e-06 C6.99400065,0.00329045589 4.56307436,2.32957354 4.55962514,5.20021778 L4.55962514,5.21217237 L4.55962516,5.21218689 Z" id="形状"></path>
                    </g>
                </g>
            </g>
        </g>
    </g>
</svg>